<svg id="Camada_1" data-name="Camada 1" xmlns="http://www.w3.org/2000/svg"
  viewBox="0 0 536.28 551.28">
  <defs>
    <style>.cls-1{fill:#639;}</style>
  </defs>
  <path class="cls-1"
    d="M625.7,29.52a65.82,65.82,0,0,1,65.75,65.75v68.86a71.84,71.84,0,0,0-68.75,71.69V399.64a100.5,100.5,0,0,1-37,78.07L498.61,549A114.16,114.16,0,0,1,354,549l-87.1-71.28a100.5,100.5,0,0,1-37-78.07V235.82a71.85,71.85,0,0,0-68.75-71.69V95.27a65.82,65.82,0,0,1,65.75-65.75H625.7m0-3H226.93a68.75,68.75,0,0,0-68.75,68.75v71.8a68.75,68.75,0,0,1,68.75,68.75V399.64A103.88,103.88,0,0,0,265,480l87.1,71.29a117.18,117.18,0,0,0,148.39,0L587.61,480a103.88,103.88,0,0,0,38.09-80.39V235.82a68.75,68.75,0,0,1,68.75-68.75V95.27A68.75,68.75,0,0,0,625.7,26.52Z"
    transform="translate(-158.18 -26.52)" />
</svg>