<svg id="Camada_1" data-name="Camada 1" xmlns="http://www.w3.org/2000/svg" viewBox="0 0 695.16 470.18"><defs><style>.cls-1{opacity:0.4;}.cls-2{fill:#f30;}</style></defs><g class="cls-1"><path class="cls-2" d="M378.41,341s-42.55-22.91-42.55-45.82S332.59,233,339.13,233s52.37-9.81,58.91-13.09,16.37,19.64,3.28,32.73S371.86,275.51,362,272.24c0,0,9.82,6.55,19.64,0,0,0,36,0,45.82,22.91,0,0-6.55-19.64-26.18-26.18,0,0,19.63-3.28,32.73,6.54,0,0,19.63,16.37,36,3.28h32.73s6.54,45.82-42.55,65.45Z" transform="translate(-70.74 -93.35)"/><polygon class="cls-2" points="310.94 234.53 310.94 247.62 288.03 470.18 415.67 470.18 389.49 250.89 310.94 234.53"/><path class="cls-2" d="M342.4,229.69s29.46-3.27,32.73-9.82V180.6c0-3.28-9.82-13.09-19.63-9.82S329.31,197,342.4,229.69Z" transform="translate(-70.74 -93.35)"/><path class="cls-2" d="M381.68,216.6s19.64-6.55,22.91-3.27,6.55,13.09,6.55,19.63c0,0,3.27-9.81,6.54-22.91s9.82-32.73,3.27-36S391.5,161,381.68,180.6Z" transform="translate(-70.74 -93.35)"/><path class="cls-2" d="M411.14,262.42s-3.28-9.82,6.54-36,9.82-45.82,19.64-49.1,29.46,0,29.46,19.64-26.19,68.73-29.46,68.73S427.5,272.24,411.14,262.42Z" transform="translate(-70.74 -93.35)"/><path class="cls-2" d="M440.59,269s6.55,16.36,29.46,6.54,29.45-62.18,26.18-68.73-16.36-16.36-26.18-6.55C470.05,200.23,466.78,239.51,440.59,269Z" transform="translate(-70.74 -93.35)"/><rect class="cls-2" x="650.49" y="120.51" width="52.05" height="264.76" rx="0.6" transform="translate(1282.28 412.42) rotate(180)"/><rect class="cls-2" x="713.85" y="151.43" width="52.05" height="202.91" rx="0.6" transform="translate(1409.01 412.42) rotate(180)"/><rect class="cls-2" x="587.13" y="93.35" width="52.05" height="319.07" rx="0.6" transform="translate(1155.56 412.42) rotate(180)"/><path class="cls-2" d="M483.14,273.81H637.32V233.52H498.91S500.66,251,483.14,273.81Z" transform="translate(-70.74 -93.35)"/><rect class="cls-2" x="63.36" y="27.15" width="52.05" height="264.76" rx="0.6"/><rect class="cls-2" y="58.08" width="52.05" height="202.91" rx="0.6"/><rect class="cls-2" x="126.72" width="52.05" height="319.07" rx="0.6"/><path class="cls-2" d="M330.72,273.81H199.32V233.52H332.47S329,244,330.72,273.81Z" transform="translate(-70.74 -93.35)"/></g></svg>