<svg xmlns="http://www.w3.org/2000/svg" xmlns:xlink="http://www.w3.org/1999/xlink" viewBox="0 0 410.91 543.84"><defs><style>.cls-1{isolation:isolate;}.cls-2{opacity:0.4;}.cls-3{fill:url(#linear-gradient);}.cls-4{fill:url(#linear-gradient-2);}.cls-5{fill:url(#Gold);}.cls-6,.cls-8{fill:#bcbec0;}.cls-6,.cls-7{mix-blend-mode:multiply;}</style><linearGradient id="linear-gradient" x1="419.58" y1="572.83" x2="419.58" y2="206.15" gradientUnits="userSpaceOnUse"><stop offset="0" stop-color="#d68024"/><stop offset="1" stop-color="#d59417"/></linearGradient><linearGradient id="linear-gradient-2" x1="419.58" y1="233.67" x2="419.58" y2="22.88" xlink:href="#linear-gradient"/><linearGradient id="Gold" x1="345.27" y1="212.78" x2="493.9" y2="212.78" gradientUnits="userSpaceOnUse"><stop offset="0" stop-color="#ffe7a3"/><stop offset="0.5" stop-color="#ffca05"/><stop offset="1" stop-color="#faac18"/></linearGradient></defs><g class="cls-1"><g id="Camada_1" data-name="Camada 1"><g class="cls-2"><path class="cls-3" d="M421,571c-57.23,0-112.78-13.13-152.41-36-31.17-18-55.45-43.42-54.47-80.8C216.69,357,287.51,277.5,352.88,212.48c15.91-15.82,42.86-34.8,66.6-34.8,36.26,0,63.25,28.08,85.52,53.3,28.89,32.71,54.31,65.16,77.27,102.62,25.1,40.92,42.7,86.54,42.77,134.23,0,23.47-19,48-52.13,67.25C533.58,557.94,478.24,571,421,571Z" transform="translate(-214.13 -27.21)"/><path class="cls-4" d="M420.39,27.21c-31.77,0-62.6,7.28-84.61,20-17.3,10-30.78,24.1-30.24,44.85.89,33.73,37.89,54.5,39.81,85.63,1.69,27.36,18,29.43,31.62,43,8.83,8.78,77.67,9.34,90-4.66,10.93-12.37,26.84-17.41,26.9-37.87,0-7.55,39.7-67.14,39.74-93.61,0-13-10.53-26.63-28.94-37.33C482.87,34.48,452.14,27.21,420.39,27.21Z" transform="translate(-214.13 -27.21)"/><path class="cls-5" d="M493.84,179.42c0,.37,0,.75-.08,1.12s-.08.65-.13,1-.1.75-.17,1.12-.13.65-.2,1-.17.72-.27,1.08-.18.66-.29,1-.22.72-.35,1.08l-.36,1c-.15.37-.31.75-.48,1.12s-.28.63-.44.94-.37.75-.57,1.12-.33.6-.5.9-.54.88-.82,1.31l-.52.8c-.33.48-.68,1-1,1.44-.18.22-.33.45-.51.67l-.25.31c-.39.47-.79.94-1.21,1.42l-.34.38c-.5.54-1,1.08-1.56,1.61a4.11,4.11,0,0,1-.3.29c-.41.4-.83.79-1.27,1.18s-.71.63-1.07.94-.67.57-1,.85-.77.61-1.17.91-.72.56-1.1.83-.83.59-1.26.88-.78.54-1.18.8l-1.35.86c-.57.35-1.13.7-1.72,1-1.11.64-2.26,1.26-3.42,1.85l-1,.51c-.9.44-1.82.88-2.75,1.29l-.94.43c-1.22.53-2.45,1-3.71,1.51l-.66.24c-1.07.4-2.14.77-3.23,1.13l-1.35.44-1.8.55-1.54.44-1.85.49-1.56.39c-.63.16-1.26.3-1.89.44l-1.58.35-1.94.38-1.5.28c-1.39.25-2.79.47-4.2.67l-.6.08c-1.23.16-2.46.31-3.7.44l-1.41.13c-.8.08-1.6.15-2.39.2l-1.51.11q-1.25.08-2.49.12l-1.42.06c-.72,0-1.44,0-2.17,0l-1.52,0-2.33,0-1.36,0-2.14-.08-1.47-.06c-.76,0-1.53-.1-2.29-.16l-1.31-.09c-.93-.07-1.85-.17-2.77-.27l-.8-.08c-1.19-.13-2.37-.28-3.55-.44l-.59-.1c-1-.15-2-.3-3-.47-.42-.07-.84-.16-1.26-.24-.76-.14-1.53-.27-2.29-.43l-1.19-.26c-.84-.18-1.67-.37-2.5-.57l-1.37-.34c-.76-.19-1.51-.39-2.26-.6l-1.27-.36c-1.18-.34-2.35-.71-3.51-1.09l-.61-.2c-1.33-.45-2.64-.93-3.93-1.43L376.8,213l-1.22-.52c-.59-.24-1.16-.51-1.73-.77-.38-.17-.76-.33-1.13-.51-.63-.3-1.24-.61-1.85-.92l-.92-.46c-.9-.48-1.8-1-2.67-1.47-14.65-8.46-22-19.55-21.93-30.64l-.08,27c0,11.08,7.29,22.18,21.93,30.64.88.5,1.77,1,2.68,1.47l.91.46,1.85.91,1.13.52,1.73.77c.4.18.82.34,1.23.51l1.18.49.38.14q1.93.75,3.93,1.44l.62.2c1.16.38,2.33.74,3.51,1.09l.58.18.69.18c.74.21,1.49.4,2.25.59l1.38.35c.82.2,1.66.38,2.49.56l.94.22.25,0c.76.16,1.53.3,2.3.44l1.25.24c1,.17,2,.33,3,.47l.52.09h0c1.18.17,2.36.31,3.55.45l.81.08q1.38.15,2.76.27h.07c.41,0,.83.06,1.24.09l2.29.15,1.49.06,2.13.09h.17l1.21,0,2.31,0,1.52,0,2.17,0h.4l1-.05c.84,0,1.67-.08,2.51-.13l1.5-.1,2.39-.2.84-.07.58-.07c1.23-.13,2.47-.27,3.69-.44l.61-.07c1.4-.2,2.8-.43,4.2-.68l.39-.06,1.1-.22,1.94-.38,1.58-.34,1.89-.44,1.56-.39,1.85-.5,1.54-.44,1.81-.55c.26-.08.53-.15.79-.24l.56-.19c1.08-.37,2.16-.74,3.22-1.14.22-.08.45-.15.67-.24,1.25-.48,2.49-1,3.7-1.51.32-.13.63-.28.94-.42.93-.42,1.85-.85,2.76-1.3l1-.5c1.17-.6,2.31-1.21,3.42-1.85l.91-.54.81-.52c.46-.28.91-.56,1.35-.85s.8-.53,1.18-.8.85-.59,1.26-.89.74-.55,1.11-.82L480,230l1-.84,1.08-.94.44-.39.83-.79.3-.29c.54-.53,1.05-1.07,1.55-1.61l.34-.39c.42-.47.83-.94,1.21-1.42L487,223a1.34,1.34,0,0,1,.11-.14c.14-.17.26-.35.39-.53.36-.47.72-1,1-1.44.18-.26.35-.53.52-.79q.42-.66.81-1.32l.22-.36c.1-.18.18-.36.28-.54.2-.37.39-.74.58-1.11s.29-.63.44-.94.32-.75.47-1.13c.07-.16.15-.33.21-.5s.1-.31.15-.46c.13-.35.25-.71.36-1.07s.2-.66.29-1,.18-.73.26-1.09c0-.19.1-.39.14-.58s0-.27.06-.4q.11-.56.18-1.11c0-.33.09-.65.12-1s.06-.75.08-1.12c0-.22,0-.44.05-.66s0-.43,0-.65l.08-27C493.89,178.54,493.86,179,493.84,179.42Z" transform="translate(-214.13 -27.21)"/><path class="cls-6" d="M419.94,135c-25.87,0-51-5.93-68.9-16.28-15.25-8.8-24-20-24-30.72s8.57-21.69,23.55-30.39c17.78-10.34,42.81-16.27,68.66-16.27s51,5.94,68.91,16.29c15.24,8.8,24,20,24,30.72s-8.57,21.69-23.56,30.4C470.81,129,445.79,135,420,135Z" transform="translate(-214.13 -27.21)"/><g class="cls-7"><path class="cls-8" d="M446,391.66H422.75V387.8q0-6.17-.8-8.06c-.54-1.27-1.69-1.9-3.46-1.9a3.55,3.55,0,0,0-3.2,1.64,9.13,9.13,0,0,0-1.06,4.92q0,5.48,2.19,7.66T429,400.58a94.42,94.42,0,0,1,12.09,8.21,22,22,0,0,1,5.45,8.06,33.29,33.29,0,0,1,2.21,13q0,12.44-6,19.52t-18,8.76v8.75H414.06v-9a27.93,27.93,0,0,1-16.3-7.17q-7-6.26-7-21.8v-4.55h23.27V430c0,6.26.23,10.15.72,11.66a3.23,3.23,0,0,0,3.48,2.28,4.07,4.07,0,0,0,3.51-1.58,8,8,0,0,0,1.15-4.7q0-7.83-1.09-11.2t-7.49-7.34a164.16,164.16,0,0,1-14.48-9.82,26,26,0,0,1-6.62-8.84,29,29,0,0,1-2.8-12.9q0-10.43,5.91-16.36t17.71-7.31v-7.43h10.71v7.43q10.77,1.38,16.12,7.23t5.36,16.15C446.25,388.24,446.17,389.7,446,391.66Z" transform="translate(-214.13 -27.21)"/><path class="cls-8" d="M419.59,502.84a91.17,91.17,0,1,1,91.16-91.17A91.28,91.28,0,0,1,419.59,502.84Zm0-166.08a74.91,74.91,0,1,0,74.9,74.91A75,75,0,0,0,419.59,336.76Z" transform="translate(-214.13 -27.21)"/></g></g></g></g></svg>