<svg id="Camada_1" data-name="Camada 1" xmlns="http://www.w3.org/2000/svg" viewBox="0 0 565.68 560.27"><defs><style>.cls-1{opacity:0.4;}.cls-2{fill:#fff;}.cls-3{fill:#109fdd;}.cls-4{fill:#f7e008;}</style></defs><g class="cls-1"><path class="cls-2" d="M351,170.21c0-14-7.64-22.34-21.46-23.93a20.06,20.06,0,0,1-5.43-1.08c-5.29-2.22-7.95-7.49-7-13.28s5.62-10.19,11.87-9.69c7.28.58,14.47,2.38,21.92,3.68,0-20.57.29-41.5-.13-62.41-.2-10.11-9.22-19-19.1-19.58-17.61-1-33.11,5.69-48.83,13.87,1.76,1.12,2.81,1.83,3.92,2.47,10,5.71,18,13.39,22.9,23.89,3.09,6.59.95,13.33-4.92,16.38-6,3.15-12.67,1.15-16.43-5-.78-1.27-1.46-2.61-2.29-3.85A30.48,30.48,0,0,0,252.22,79a30.92,30.92,0,0,0-22.44,29c-.3,10.55,2.14,13.71,12.17,15.8,32,6.62,56.64,37.1,56.31,69.34-.05,5.12-1.72,9.11-6.31,11.61-9,4.89-17.37-1.18-18.16-12.85-1.32-19.75-11.18-34-29.24-41.65s-35.48-4.65-50.12,8.45C180,171.6,174.86,188.34,180.55,207c2.91,9.52,1.49,15.74-5.65,22.79-13.34,13.15-16.93,29.73-11.14,47.56s18.7,28.37,36.92,32.31c3.26.71,6.71.44,10,.93a12,12,0,0,1-1.06,23.95c-3.9.11-8,.33-11.68-.8-10.93-3.41-21.66-7.45-33.2-11.5a20.63,20.63,0,0,0-1,2.39c-7.59,22.26,2.77,47.08,24.16,57.87,8.18,4.13,9.81,7.39,8.34,16.59a56.16,56.16,0,0,0,38.05,62.4,21.27,21.27,0,0,1,12.21,9.75c12.4,19.9,30.66,29.34,54,27,22.12-2.18,37.53-14.46,46.45-34.76,4.83-11,4.09-22.64,4.08-34.22Q351,299.74,351,170.21ZM214.09,295.89c-.24-7.11,4.71-12,12.75-12.73,14-1.19,23.79-8.17,27.27-19.53-4-1.37-8.08-2.57-12-4.14-27-10.75-45.78-38.51-45.09-66.32.13-5.45,2.4-9.42,7.28-11.57,4.44-2,9.39-1.64,12.47,2a20.19,20.19,0,0,1,4.41,10.9c1.11,13.94,6.39,25.63,17.08,34.66a47.49,47.49,0,0,0,62.16-.44c1-.85,1.91-1.79,2.89-2.65,5.42-4.77,12.39-4.76,17.11,0s4.75,12.37-.34,17.54a67.71,67.71,0,0,1-34.21,19.11c-4.08.91-6.1,2.48-7.4,6.73-6.76,22.11-28.21,38-50.72,38.13C219.74,307.59,214.32,303,214.09,295.89Zm98.67,37.43c-24.76,1.21-44.13,20.49-45.89,45.31-.3,4.29,1.79,5.82,4.94,7.57,23.38,13.06,35.61,33.24,37.62,55.52.53,14-3.83,19.79-11.63,19.92-6.8.12-11.89-4.53-12.25-11.87-.53-10.54-3.2-20.26-9.67-28.73-9-11.82-21-18.23-35.87-19.18-9.14-.59-14.4-4.81-14.55-12.1-.15-7,4.83-11.69,13.74-12.24,3.54-.21,3.65-2.09,3.94-4.69A72.17,72.17,0,0,1,311.68,309c9-.36,15,4.35,15.23,11.9C327.09,328.16,321.72,332.89,312.76,333.32Z" transform="translate(-136.82 -18.99)"/><path class="cls-3" d="M278.46,269.42c1.3-4.25,3.32-5.82,7.4-6.73a67.71,67.71,0,0,0,34.21-19.11c5.09-5.17,5.19-12.65.34-17.54s-11.69-4.78-17.11,0c-1,.86-1.9,1.8-2.89,2.65a47.49,47.49,0,0,1-62.16.44c-10.69-9-16-20.72-17.08-34.66a20.19,20.19,0,0,0-4.41-10.9c-3.08-3.6-8-3.92-12.47-2-4.88,2.15-7.15,6.12-7.28,11.57-.69,27.81,18.08,55.57,45.09,66.32,3.93,1.57,8,2.77,12,4.14C250.63,275,240.8,282,226.84,283.16c-8,.69-13,5.62-12.75,12.73s5.65,11.7,13.65,11.66C250.25,307.42,271.7,291.53,278.46,269.42Z" transform="translate(-136.82 -18.99)"/><path class="cls-3" d="M311.68,309a72.17,72.17,0,0,0-68.54,63.87c-.29,2.6-.4,4.48-3.94,4.69-8.91.55-13.89,5.25-13.74,12.24.15,7.29,5.41,11.51,14.55,12.1,14.82.95,26.83,7.36,35.87,19.18,6.47,8.47,9.14,18.19,9.67,28.73.36,7.34,5.45,12,12.25,11.87,7.8-.13,12.16-5.94,11.63-19.92-2-22.28-14.24-42.46-37.62-55.52-3.15-1.75-5.24-3.28-4.94-7.57,1.76-24.82,21.13-44.1,45.89-45.31,9-.43,14.33-5.16,14.15-12.46C326.72,313.31,320.69,308.6,311.68,309Z" transform="translate(-136.82 -18.99)"/><path class="cls-3" d="M398.31,474.63l-.06,0c-4.73,1.54-9.58-.23-10.78-3.93L382.7,456c-1.21-3.69,1.68-8,6.41-9.52h0l0,0c25.65-19.35,22.33-50.08.07-68.63l-.06,0c-4.73-1.53-7.62-5.82-6.41-9.52l4.77-14.69c1.2-3.69,6.06-5.46,10.78-3.93l.28.09c31.92-.77,47.16-27.55,40-55.57l.1,0,0,0c-2.93-4-2.74-9.19.4-11.47l12.5-9.08c3.14-2.29,8.11-.86,11,3.16h0c26.34,18.42,54.57,5.73,65.3-21.22h0c0-5,3.19-9,7.08-9h15.44c3.89,0,7.07,4.08,7.07,9,5.42,15.69,16.15,24.84,28.6,28,7-22.86,2.69-47.84-12.66-66.12-2.76-3.3-3.12-6.15-2.44-10.08,4.14-23.82-2-44.77-18.31-62.62-9.16-10-20.6-16.45-33.69-20.43.35-1.84.65-3.27.89-4.71,3.88-23-3.41-41.6-21.86-55.72-4.42-3.39-9.6-5.78-14.09-9.09C466.49,42,448.05,31.06,427.35,24.49c-12.9-4.1-26.23-7.72-39.58-3.87-8.38,2.41-16.09,7.14-24.63,11.3l-1.52.73C348.22,19,330.57,17,311.38,21.19,291.74,25.44,274,34,257.2,44.69Q243.28,53.57,229.7,63c-13.49,9.28-21.75,22-23.53,38.39-.82,7.47-.14,15.11-.14,23.28-2.79,1.12-6.67,2.43-10.33,4.2-30.6,14.82-46.14,45.7-40.29,79.3a11.47,11.47,0,0,1-1.69,8.07c-19.66,25.58-22,52.63-7.82,81.44a8.73,8.73,0,0,1,0,6.89C128.49,337.57,137,376.13,167,398c3.53,2.56,4.46,5.07,4.44,9.16-.27,34,19.21,63,50.45,75.89a15.27,15.27,0,0,1,6.23,5.09c26.53,37.39,76.52,46.38,113.45,19.69,7.85-5.67,14.28-13.32,21.6-20.44.29-.3.59-.58.89-.88.4.53,1.1,1.41,1.75,2.31,18.72,25.57,47,36.75,74.27,33.85C444.11,495.83,424.78,476.39,398.31,474.63ZM346.92,463.5c-8.92,20.3-24.33,32.58-46.45,34.76-23.3,2.3-41.56-7.14-54-27a21.27,21.27,0,0,0-12.21-9.75,56.16,56.16,0,0,1-38.05-62.4c1.47-9.2-.16-12.46-8.34-16.59-21.39-10.79-31.75-35.61-24.16-57.87a20.63,20.63,0,0,1,1-2.39c11.54,4,22.27,8.09,33.2,11.5,3.63,1.13,7.78.91,11.68.8a12,12,0,0,0,1.06-23.95c-3.33-.49-6.78-.22-10-.93-18.22-3.94-31.11-14.49-36.92-32.31s-2.2-34.41,11.14-47.56c7.14-7.05,8.56-13.27,5.65-22.79-5.69-18.64-.56-35.38,13.88-48.33,14.64-13.1,32-16.13,50.12-8.45s27.92,21.9,29.24,41.65c.79,11.67,9.2,17.74,18.16,12.85,4.59-2.5,6.26-6.49,6.31-11.61.33-32.24-24.35-62.72-56.31-69.34-10-2.09-12.47-5.25-12.17-15.8a30.92,30.92,0,0,1,22.44-29A30.48,30.48,0,0,1,286,91.73c.83,1.24,1.51,2.58,2.29,3.85,3.76,6.1,10.4,8.1,16.43,5,5.87-3,8-9.79,4.92-16.38-4.94-10.5-12.91-18.18-22.9-23.89-1.11-.64-2.16-1.35-3.92-2.47,15.72-8.18,31.22-14.86,48.83-13.87,9.88.56,18.9,9.47,19.1,19.58.42,20.91.13,41.84.13,62.41-7.45-1.3-14.64-3.1-21.92-3.68-6.25-.5-10.9,3.93-11.87,9.69s1.69,11.06,7,13.28a20.06,20.06,0,0,0,5.43,1.08c13.82,1.59,21.46,10,21.46,23.93q0,129.53,0,259.07C351,440.86,351.75,452.53,346.92,463.5Z" transform="translate(-136.82 -18.99)"/><path class="cls-4" d="M695.81,447.06l-.07,0c-22.25-18.67-25.57-49.6.08-69.07l0,0h0c4.72-1.54,7.61-5.86,6.41-9.58l-4.77-14.78c-1.2-3.73-6.06-5.51-10.79-4l-.06,0c-28.91-1.94-49.65-25-40.27-55.92h0c2.92-4,2.74-9.25-.41-11.55L633.4,273c-3.15-2.3-8.11-.87-11,3.18-11.86,7.54-25,9.83-36.71,6.84-12.45-3.19-23.18-12.4-28.6-28.2,0-5-3.18-9.1-7.07-9.1H534.54c-3.89,0-7.08,4.1-7.08,9.1h0c-10.73,27.13-39,39.9-65.3,21.36h0c-2.93-4.05-7.89-5.48-11-3.18l-12.5,9.14c-3.14,2.3-3.32,7.5-.4,11.55l0,0-.1,0c7.15,28.2-8.09,55.15-40,55.93l-.28-.09c-4.72-1.54-9.58.24-10.78,4l-4.77,14.78c-1.21,3.72,1.68,8,6.41,9.58l.06,0c22.26,18.67,25.58,49.6-.07,69.07l0,0h0c-4.73,1.54-7.62,5.86-6.41,9.58l4.77,14.78c1.2,3.73,6.05,5.51,10.78,4l.06,0c26.47,1.77,45.8,21.34,41.74,48.34a52.53,52.53,0,0,1-1.45,7.58h0c-2.92,4.05-2.74,9.25.4,11.55l12.5,9.14c3.15,2.3,8.11.87,11-3.18h0c24.52-15.59,54.82-9.23,65.31,21.35h0c0,5,3.18,9.1,7.07,9.1H550c3.89,0,7.07-4.1,7.07-9.1h0c10.73-27.12,39-39.9,65.3-21.36,2.93,4.05,7.89,5.48,11,3.18l12.5-9.14c3.14-2.3,3.32-7.49.4-11.54l0,0,.1,0c-7.15-28.21,8.09-55.16,40-55.94l.26.09c4.73,1.55,9.59-.23,10.79-4l4.77-14.78C703.42,452.92,700.54,448.61,695.81,447.06ZM542.26,503a88.8,88.8,0,0,1-45.61-12.62,90.43,90.43,0,0,1-44.26-77.84c0-49.95,40.24-90.45,89.87-90.45a88.82,88.82,0,0,1,46.39,13.09,90.4,90.4,0,0,1,43.48,77.36C632.13,462.46,591.9,503,542.26,503Z" transform="translate(-136.82 -18.99)"/></g></svg>