<svg id="Camada_1" data-name="Camada 1" xmlns="http://www.w3.org/2000/svg" viewBox="0 0 694.19 553.42"><defs><style>.cls-1{opacity:0.4;}.cls-2,.cls-6{fill:#fff;}.cls-2,.cls-3,.cls-5,.cls-6,.cls-7{stroke:#000;}.cls-2,.cls-3,.cls-5{stroke-linecap:round;stroke-linejoin:round;}.cls-2,.cls-3,.cls-6{stroke-width:0.5px;}.cls-3,.cls-5,.cls-7{fill:none;}.cls-4{fill:#f7e008;}.cls-5,.cls-7{stroke-width:0.25px;}.cls-6,.cls-7{stroke-miterlimit:10;}</style></defs><g class="cls-1"><path class="cls-2" d="M425.39,117.37S378.28,4.75,205.51,22.75v390.7s125.65-20,219.88,27.1Z" transform="translate(-76.05 -19.67)"/><path class="cls-3" d="M189.8,65.26S169.61,44.8,153.9,44V472.75s113.31-46.37,226.62,0" transform="translate(-76.05 -19.67)"/><path class="cls-4" d="M116.53,88.2H97.08a21,21,0,0,0-21,21V510.62a21,21,0,0,0,21,21H378.46s16.67,41.45,47.62,41.45,47.63-38.6,47.63-38.6h275.5a21,21,0,0,0,21-21V109.24a21,21,0,0,0-21-21H732.69v385A19.59,19.59,0,0,1,713.1,492.8H493.28a26.36,26.36,0,0,0-24.21,16.62c-5.62,13.6-17.72,30.59-43,30.59-22.91,0-35.7-18.06-42.12-31.84a26.45,26.45,0,0,0-24-15.37H134.41a19.59,19.59,0,0,1-19.59-19.67Z" transform="translate(-76.05 -19.67)"/><path class="cls-5" d="M261.68,107.27s80.69-6,128.81,43.85" transform="translate(-76.05 -19.67)"/><path class="cls-5" d="M261.68,146s80.69-6.65,128.81,43.85" transform="translate(-76.05 -19.67)"/><path class="cls-5" d="M261.68,186.83s74.82-6,128.81,43.84" transform="translate(-76.05 -19.67)"/><path class="cls-5" d="M261.68,225.53s67.17-13.34,128.81,43.85" transform="translate(-76.05 -19.67)"/><path class="cls-5" d="M261.68,266.36s72.48-11.07,128.81,43.84" transform="translate(-76.05 -19.67)"/><path class="cls-5" d="M261.68,305.06s76-12.44,128.81,43.85" transform="translate(-76.05 -19.67)"/><path class="cls-6" d="M425.39,117.37S472.51,4.75,645.28,22.75v390.7s-125.65-20-219.89,27.1Z" transform="translate(-76.05 -19.67)"/><path class="cls-3" d="M661,65.26S681.18,44.8,696.88,44V472.75s-113.31-46.37-226.61,0" transform="translate(-76.05 -19.67)"/><path class="cls-7" d="M589.1,107.27s-80.68-6-128.8,43.85" transform="translate(-76.05 -19.67)"/><path class="cls-7" d="M589.1,146s-80.68-6.65-128.8,43.85" transform="translate(-76.05 -19.67)"/><path class="cls-7" d="M589.1,186.83s-74.82-6-128.8,43.84" transform="translate(-76.05 -19.67)"/><path class="cls-7" d="M589.1,225.53s-67.16-13.34-128.8,43.85" transform="translate(-76.05 -19.67)"/><path class="cls-7" d="M589.1,266.36s-72.47-11.07-128.8,43.84" transform="translate(-76.05 -19.67)"/><path class="cls-7" d="M589.1,305.06s-76-12.44-128.8,43.85" transform="translate(-76.05 -19.67)"/><path class="cls-4" d="M465.08,59.63v78.71l23.67,21.3,36-53.12V26l-2-1.53a22.65,22.65,0,0,0-22.94-3A130,130,0,0,0,480.27,32,30.88,30.88,0,0,0,467.5,50.16Z" transform="translate(-76.05 -19.67)"/></g></svg>