<svg id="Camada_1" data-name="Camada 1" xmlns="http://www.w3.org/2000/svg" viewBox="0 0 507.56 518.49"><defs><style>.cls-1{opacity:0.4;}.cls-2{fill:#afa37d;}</style></defs><g class="cls-1"><path d="M650.49,142c-8.51-15.12-20.1-34.25-27.06-39.49-6.38-4.8-13.35-7-19.49-8.94a73.2,73.2,0,0,1-7.73-2.77c-13.31-6.15-30.34-12.42-44.16-6.27C546,87.2,538.74,89.28,527,86.1c-15.95-4.3-39-14.58-46.59-18l-5-2.6c-9.87-5.44-24.77-13.68-49.89-9.07l-12.69,2.46c-13.79,2.74-16.57,3.2-22.54,1.51-4.43-1.25-12-4.18-19.3-7C355.85,47.57,346.2,44,339.33,43.34c-30.34-2.7-50.55,9.4-62.19,20a16.21,16.21,0,0,0-3.81,5.25C268.57,79.05,262.1,92,259.82,95.18c-3.09,3.22-12.3,10.19-21.38,11.39l-3.72.47c-20.06,2.43-67,8.11-71.75,43.56-4.05,30.24,10.44,95.22,10.59,95.87l1.8,7.73c7.58,32.36,11.56,51,11.83,55.34.36,9.44,17.72,99.1,46.62,127A109.81,109.81,0,0,0,246,446.64c5.43,13.21,11.35,27.54,13.43,32.2.2.46,21,46.44,29.87,57.8l1.67,2.18c6.72,8.88,22.48,29.68,47.17,20.22,5.83-2.24,16.48-5.83,27.76-9.63,16.45-5.55,33.45-11.29,41.15-14.71,7.46-3.32,14.66-8.09,21.63-12.71,5.25-3.47,10.66-7.06,14.53-8.78l39.92-17.76c16.93-7.54,21.19-22.52,23-34.73a58.48,58.48,0,0,0-3.74-30.3c11.66-1.67,20.55-3.24,26.74-6,8.6-3.83,19.5-14.49,26.57-27a44.48,44.48,0,0,0,16,3c24.17-.15,42-7,53-20.33,12.82-15.6,22.32-54.06,22.58-69,.23-12.8,1.92-26.54,2.46-31l.39-2.37c1-5.6,2.54-15-1.6-24.29-1-2.28-2.12-4.78-2.43-5.82.22-3.66,1.17-8.38,2-10,9.62-9,21-33.76,21.6-47.92.12-2.76.33-7.55-6-21.7C660.94,161.45,656.71,153,650.49,142Z" transform="translate(-162.26 -42.96)"/><path class="cls-2" d="M250.68,415.07s19.61,48.13,23.63,57.17,21.53,46.37,27.82,54.4,15.57,22.84,30.22,17.22,56.06-18.64,68.12-24,25.62-16.8,36.17-21.49l39.91-17.76c9.05-4,12-11.64,13.56-22.27s2.15-39.76-46.32-53.38S250.68,415.07,250.68,415.07Z" transform="translate(-162.26 -42.96)"/><path d="M297.66,477c-4.23,11.71,16.17,53.9,17.76,53s-13.94-38.11-11.58-50.41c1-5.15,4.33-13.26,2.63-12.63C305.86,467.15,300.42,469.36,297.66,477Z" transform="translate(-162.26 -42.96)"/><path class="cls-2" d="M337.63,62.73c4.47.4,16.1,4.89,26.36,8.86,8.08,3.13,15.71,6.08,21,7.58,10.67,3,17.24,1.72,31.64-1.14,3.58-.72,7.64-1.52,12.43-2.4,18.27-3.36,28.2,2.12,37,7,2.21,1.23,4.31,2.38,6.43,3.33,7.92,3.53,32,14.28,49.45,19,17.75,4.79,29.66,1.12,38.05-2.62,7.52-3.34,23,3.82,28.06,6.17a84.36,84.36,0,0,0,10,3.64c5.12,1.62,10,3.14,13.68,6,2.48,1.87,11.84,15.77,21.79,33.47,11.82,21,17,33.83,16.8,37.21-.45,10.1-11,31.3-15.57,34.86-7.12,5.58-8,21.67-8.09,23.49-.2,4.45,1.33,7.9,4.12,14.18,1.76,3.94.89,9,.19,13.11-.2,1.15-.39,2.24-.51,3.27v.06c-.58,4.77-2.34,19.26-2.59,33-.25,13.11-9.31,46.21-18.16,56.95s-25.58,13.17-38,13.24c-12.74.09-22.47-10.3-22.56-10.4a3.23,3.23,0,0,0-5.6,2.3c.2,5.26-2.68,12.53-7.92,20-4.6,6.54-10.36,12.12-14.33,13.88-5,2.22-16.61,3.84-25.95,5.14-7,1-13,1.81-16.15,2.81-3.38,1.07-12.74-4-19.47-9.32a3.25,3.25,0,0,0-2.84-.58,3.29,3.29,0,0,0-2.17,1.93,12.75,12.75,0,0,1-6.41,6.34c-4.75,2.12-13.37,4.73-24.9,7.53-3.36.82-7.64,1.63-12.17,2.48-7.44,1.4-15.87,3-23.38,5.2s-21.21-8.05-28.21-15a3.22,3.22,0,0,0-4.18-.31c-6,4.4-22.65,16.32-27.95,18.68-3.76,1.67-12.85,4.81-20.15,7.33-6,2.07-10.75,3.71-12.48,4.48-1.11.44-7.25.86-16.11-1.78-7.66-2.27-19.33-7.43-31.42-19.08-9.56-9.21-19.49-30.58-28.74-61.8-7.42-25.05-11.79-48.05-11.94-51.92-.25-6.76-6.11-32.5-12.4-59.31l-1.68-7.24c-3.14-14-10.85-54.3-10.85-79.09a77.15,77.15,0,0,1,.55-9.92c1.16-8.6,8.36-15.34,21.42-20,11.53-4.15,24.68-5.74,33.38-6.79l3.95-.49c15.3-2,28.48-12.46,33.32-17.68,4.25-4.59,14.3-26.24,16.43-30.87C303.38,66,319.15,61.1,337.63,62.73Z" transform="translate(-162.26 -42.96)"/><path d="M280.14,235.17c-2.13,1.75,9.18,19.5,11.42,24.55,1.37,3.06,3.35,10,5.26,16.74,2.1,7.38,4.08,14.35,5.74,18.07L307,307c2.18,6.6,4.66,14.08,7.37,20.16,4.7,10.57,11.57,30.14,14,37.44,3.45,10.43,15.49,45.15,25.58,54.51a5,5,0,0,0,6.8-7.34c-6.17-5.73-16.2-30.09-22.88-50.3-2.45-7.45-9.48-27.46-14.33-38.37-2.51-5.64-4.91-12.86-7-19.24l-4.81-13.41c-1.37-3.06-3.35-10-5.25-16.74-2.1-7.38-4.1-14.35-5.75-18.07C297.5,248.46,282.28,233.4,280.14,235.17Z" transform="translate(-162.26 -42.96)"/><path d="M392.87,195.74c-2.23,1.62,8.08,31.76,9.85,41.8l10,22.88c2.94,23.66,5,39.52,7.08,44.19,1.26,2.83,5.05,17.73,8.41,30.88,5.14,20.25,8.67,33.85,10.63,38.25a102,102,0,0,1,3.59,10.89c2.86,9.65,6.1,20.57,11.53,26.52,1.87,2.05,15.27,11.92,17.33,10.06,6.51-6,17.34,13.05-9.94-16.8-3.87-4.26-6.89-14.44-9.32-22.63a104.39,104.39,0,0,0-4-12.11c-1.76-4-6.39-22.08-10.09-36.64-4.56-17.91-7.42-29.06-8.95-32.49-1.63-3.66-8.78-25.2-10.63-40.21l-5.78-24.53C410.06,221.44,395.11,194.12,392.87,195.74Z" transform="translate(-162.26 -42.96)"/><path d="M531.2,288.81c1.39,9.1,11.26,96.58,11.35,97.33.33,2.75,20.33-6.09,18.17-7.84a29.4,29.4,0,0,1-11.13-21.7c-.39-3.08-7.07-60.06-8.49-69.32,0,0-9.54-61.18-15.47-61.18C523.79,246.22,531.2,288.81,531.2,288.81Z" transform="translate(-162.26 -42.96)"/><path d="M239.43,126.33c6.88,0,20.13.88,37.42,19-10.45-28-1.71-38.33-1.66-38.49a3.34,3.34,0,0,0-2.34-4.09C271.08,102.31,237.6,126.33,239.43,126.33Z" transform="translate(-162.26 -42.96)"/><path d="M608.59,206.15c-1.62.89,17.47,39.77,18.26,44.25a3.33,3.33,0,1,0,6.56-1.15C632.21,242.35,610.19,205.26,608.59,206.15Z" transform="translate(-162.26 -42.96)"/><path d="M626.84,189.83c-1.62.87,7.12,20.55,4.35,36.75a3.33,3.33,0,0,0,6.57,1.12C640.92,209.19,628.46,189,626.84,189.83Z" transform="translate(-162.26 -42.96)"/><path d="M633.89,222.7a3.33,3.33,0,0,0,5.86,3.18c4.57-8.43,7.58-38.41,5.75-38.5S638,215.16,633.89,222.7Z" transform="translate(-162.26 -42.96)"/><path d="M363,70.4s27.57,11.87,27.57,44l3.84-2.79a8.1,8.1,0,0,0,4.18-4.54c1.4-3.49,7.68-27.92,28.62-31.06Z" transform="translate(-162.26 -42.96)"/><path d="M280.14,235.17S291,254.8,291,269.66s70.6,142.43,37.16,162.25l29.22-16.47-39.13-98.72-22.29-53.25Z" transform="translate(-162.26 -42.96)"/><path d="M395,199.06s8.67,24,7.72,38.48,13.1,62,14.46,70.61,17.6,70.8,20,83,2.4,25.86-10,29.57c0,0,20.13-.64,26.79-9.61s-.78-12.68-.78-12.68l-30-104.37-14-53.19Z" transform="translate(-162.26 -42.96)"/><path d="M487.76,424.58l10.34,39.59L496,474.87s-2.68-29.63-42-39.95c-19.28,7.13-74,17.73-102.21,5.05-36,23.37-86.31,0-68.34,52.74l-44.17-74.82s31.39,32.24,68.65,22.66,29-24.49,33.25-23.42c1.81.45,9.31-6.43,20.79-4C372.64,427.73,402.17,429,402.17,429S425,418.2,434.54,418.2s21.29-9.58,21.29-9.58Z" transform="translate(-162.26 -42.96)"/><path d="M388.67,98.37s-.59,21.31,6.56,34.38A98.05,98.05,0,0,1,403,94.89C411.33,75.72,388.67,98.37,388.67,98.37Z" transform="translate(-162.26 -42.96)"/><path d="M404.32,445.24a2.13,2.13,0,0,0-.69.93c-.31.8-7.45,19.74,1.87,32,2.88,3.78,4.86,6.95,6.61,9.74.91,1.43,1.74,2.77,2.59,4,0,0-2.78-12.39-5.78-16.33S405,466.8,405,462.22a46.1,46.1,0,0,1,2.4-14c6.61-5,11.17-8.67,14.44-11.29L418,434.79C414.47,437.43,410,440.85,404.32,445.24Z" transform="translate(-162.26 -42.96)"/><path d="M479.61,443l-5.78-3.08c2.11,4.88,6.22,15.58,6.22,18.67a47.79,47.79,0,0,1-2.21,14.3c-1.23,3.72-2.84,6.33-4.32,7-17,7.59-53,17.93-53,17.93a16.07,16.07,0,0,0,3.2,1.52c2.36.82,7.7,1.14,26.68-5.62,10.79-3.84,21.62-8.45,24.88-9.9,2.71-1.21,5-4.42,6.65-9.56,2.74-8.27,3.63-20.84.3-26.73C481.4,446.06,480.54,444.54,479.61,443Z" transform="translate(-162.26 -42.96)"/><path d="M492.3,86.17,507.73,99.8s12.15,7,12.46,33.35c0,0,2-22.14,29.36-27.89C572.1,100.51,492.3,86.17,492.3,86.17Z" transform="translate(-162.26 -42.96)"/></g></svg>