<svg id="Camada_1" data-name="Camada 1" xmlns="http://www.w3.org/2000/svg" viewBox="0 0 458.67 492.47"><defs><style>.cls-1{fill:#090;opacity:0.4;}</style></defs><path class="cls-1" d="M452.71,106.66A49.32,49.32,0,1,1,502,156,49.32,49.32,0,0,1,452.71,106.66Zm186.61,144a23.08,23.08,0,0,0-32.44-3.5l-59.47,27.17-48.24-99-49.9-29.47L339.7,143.46a35,35,0,0,0-29.49,14.43L268.26,215.8a20.64,20.64,0,0,0,4.65,28.86l.34.25a20.65,20.65,0,0,0,28.91-4.81l38-53.58L401.63,197,308.86,383.9l-89.92-40.83A20.65,20.65,0,0,0,191.72,351l-3.13,5.34A20.64,20.64,0,0,0,196,384.6L300.57,446a26.2,26.2,0,0,0,34.59-7.39c22.86-32,66.08-92.18,67.86-91.35l80.47,53.95.43,110.44s-.12,29.63,13.49,35.79a27,27,0,0,0,35.79-13.5l10.58-134.76s.23-29.38-13.18-35.65L443.48,296.2l33.35-48.73L522.73,319a23.06,23.06,0,0,0,31.8,2.75l81.28-38.74A23.07,23.07,0,0,0,639.32,250.61Z" transform="translate(-185.75 -57.34)"/></svg>