<svg id="Camada_1" data-name="Camada 1" xmlns="http://www.w3.org/2000/svg" viewBox="0 0 592.61 507.09"><defs><style>.cls-1{fill:red;opacity:0.4;}</style></defs><path class="cls-1" d="M722.3,182.11h0C717.68,95.19,646,29.63,555.46,29.63q-4,0-8.12.17C490.86,32.11,448.26,68.88,426.94,92c-21-23.38-63-60.77-119.47-63.9q-5.55-.32-11-.31c-89,0-160.4,64.52-166.19,150.06-5.47,80.6,49.46,150.72,91.24,196.45,54.1,59.2,138.1,122.92,193.12,155.26l9,5.32,9.13-5.18c55.48-31.55,140.4-94,195.36-152.44C670.66,332.09,726.6,262.77,722.3,182.11ZM601.75,352.32C547,410.51,469.09,465.77,424,492.73c-44.68-27.61-121.75-84-175.66-143-10.42-11.41-21.74-24.52-32.58-38.87H330.17a5.9,5.9,0,0,0,4.74-2.24l6.29-8.31,7.86,35.88a5.89,5.89,0,0,0,11.23,0l7.45-33.15,9.19,49a5.87,5.87,0,0,0,11.26.08L416.51,215l23.42,203c.29,2.56,2.69,4.54,5.7,4.59a5.51,5.51,0,0,0,5.65-4.35l20.2-120.93L479.7,349a5.46,5.46,0,0,0,5.37,4.37,5.7,5.7,0,0,0,5.8-3.69L505,305.08l5.52,25.19a5.55,5.55,0,0,0,5.28,4.11,5.9,5.9,0,0,0,5.73-3.37l7.36-18.55,6.5,9.1a6.16,6.16,0,0,0,9.31.4l9.8-11.08h82.77A530.87,530.87,0,0,1,601.75,352.32Zm43-51.67H551.71a6,6,0,0,0-4.5,1.93L540.69,310l-8.47-11.86a5.91,5.91,0,0,0-5.33-2.31,5.64,5.64,0,0,0-4.88,3.36L517.72,310l-6.11-27.84a5.54,5.54,0,0,0-5.43-4.1H506a5.65,5.65,0,0,0-5.5,3.69l-13.27,41.87-10-62.48a5.86,5.86,0,0,0-11.33,0L446.66,376.58,423.8,178.45a5.46,5.46,0,0,0-5.55-4.57c-2.95.05-5.26,1.72-5.76,4.17L382.84,321.69l-9-47.7a5.88,5.88,0,0,0-11.25-.16l-7.89,35.08-5-22.64a5.47,5.47,0,0,0-4.7-4,6.14,6.14,0,0,0-5.65,2.17l-12.31,16.26H208.33c-24.68-35-44.76-76.67-41.79-120.39,3.91-57.74,49.8-116.19,130-116.19q4.41,0,8.95.25c62.65,3.47,105.82,65.89,106.23,66.49l14.82,22L441.64,131c.43-.63,44.1-62.36,107.18-64.94,84.33-3.33,134.08,59.15,137.2,118h0C688.28,226.47,668.92,266.65,644.79,300.65Z" transform="translate(-129.92 -27.74)"/></svg>