<svg id="Camada_1" data-name="Camada 1" xmlns="http://www.w3.org/2000/svg" viewBox="0 0 566.97 559.59"><defs><style>.cls-1{fill:#b24747;opacity:0.4;}</style></defs><path class="cls-1" d="M705,290.24H674.55C671.12,157.39,562.7,50.37,428.09,47v-30H414.94V47c-134.6,3.39-243,110.41-246.46,243.26H138v13h30.45c3.43,132.86,111.86,239.87,246.46,243.27v30h13.15v-30c134.61-3.4,243-110.41,246.46-243.27H705Zm-84,0H586.86c-3.37-85-72.6-153.37-158.77-156.7V99.79C533.14,103.16,617.64,186.56,621.05,290.24Zm-223.61,0H361.55c3.05-27.69,25.33-49.69,53.39-52.69V273A24.8,24.8,0,0,0,397.44,290.24Zm0,13a24.83,24.83,0,0,0,17.5,17.29v35.4c-28.06-3-50.34-25-53.39-52.69Zm30.65,17.29a24.82,24.82,0,0,0,17.51-17.29h35.88c-3.05,27.7-25.32,49.69-53.39,52.69Zm17.51-30.26A24.78,24.78,0,0,0,428.09,273V237.55c28.07,3,50.34,25,53.39,52.69Zm-30.66-86.3c-46.84,3.2-84.19,40.07-87.43,86.3H291.09C294.43,224.17,348,171.3,414.94,168Zm-87.43,99.27c3.24,46.24,40.59,83.11,87.43,86.3v35.94C348,422.16,294.43,369.3,291.09,303.21Zm100.58,86.3c46.84-3.19,84.2-40.07,87.44-86.3H552C548.61,369.3,495,422.15,428.09,425.45Zm87.44-99.27c-3.24-46.23-40.6-83.09-87.44-86.3V168c67,3.3,120.52,56.18,123.86,122.24ZM414.94,99.79v33.75c-86.17,3.33-155.39,71.66-158.77,156.7H222C225.39,186.56,309.89,103.15,414.94,99.79ZM222,303.21h34.19c3.38,85.07,72.6,153.38,158.77,156.7v33.75C309.89,490.3,225.39,406.91,222,303.21ZM428.09,493.66V459.91c86.17-3.32,155.4-71.64,158.77-156.7h34.19C617.64,406.91,533.14,490.3,428.09,493.66Z" transform="translate(-138.03 -16.93)"/></svg>