<svg id="Camada_1" data-name="Camada 1" xmlns="http://www.w3.org/2000/svg" viewBox="0 0 722.24 562.8"><defs><style>.cls-1{opacity:0.4;}.cls-2{fill:#c0f;}.cls-3{fill:#fff;}</style></defs><g class="cls-1"><path class="cls-2" d="M620,290.31C588.17,358.5,557.93,431.08,474.54,451c-43.59,10.39-89.33,13-134.3,16.09a105.14,105.14,0,0,1-54.32-10.61c-9.07-4.52-16-9.12-21.43-17-4.51-6.54-11.71-13.77-13.19-22.23.44,2.64-9.13,12-10.88,14.85a56.49,56.49,0,0,0-7.69,19.82,62.43,62.43,0,0,0,7.33,42c16.19,27.72,46.14,38.55,72.74,52.61,14.85,7.85,36.23,6.41,52.73,6.42,32.73,0,66.86-3.88,98-14.32,51.23-17.17,93.19-53.21,125.08-96.08,68.41-92,76.63-203.57,101.81-310a94,94,0,0,0-17.92,28.71C654.92,204.21,639.64,248.27,620,290.31Z" transform="translate(-60.56 -15.09)"/><path class="cls-2" d="M265.83,187.41c77.68-5,155.59,13.19,233.54-6C556.19,167.33,610.5,151.54,655,105c-8.5,0-12.85-.87-16.73.12-73.44,18.63-146.77,32-220.72,1.63-5.65-2.31-15.95-1.31-20.3,2.49-33.35,29.1-69.48,22.82-104.16,6.6-27-12.63-50.62-10.54-74.63,4-36.48,22.11-72.72,44.63-109.6,67.31l95.83,65.72c-7.11-20.26-11.8-33.64-18.79-53.54C213,195.15,239.29,189.11,265.83,187.41Z" transform="translate(-60.56 -15.09)"/><path d="M736.72,15.11l-19.12,0c-3.3,11.07-3.18,28.2-10.4,32.26-86.8,48.8-178.22,69.27-277,40.7-13.38-3.86-33.51-6.47-42.51.57-31.33,24.53-61.1,17.14-92.41,3.81-28.21-12-55.91-10.17-82.36,4.52-16.62,9.23-31.6,21.55-48.54,30-24.47,12.23-44.9,40.09-78.59,22.23-3.66-1.94-12.65,2-16.78,5.85-13.18,12.23-10.55,58.42,5.08,75.67,4.19-12.11,8-23.06,11.31-32.68,90.53,38.74,138.36,113.17,175.91,196.61-.88-2-31,23.9-33.57,26.91-8.18,9.72-14.47,21.24-16.67,33.86-5.24,30.1,17.58,53.3,37.34,72.94,7.33,7.29,14.7,14.6,23.13,20.56,19.59,13.85,44.73,21,68.24,24.12,4.48.61,9.27,1.28,14.24,1.94,18.76,2.47,40,4.61,57.25,1,14.17-3,28.49-5.41,42.47-9.1C553.23,540.55,616.89,472,651.18,380.55c27.55-73.5,40-152.63,59.86-229.07,7.57-29.1,17.18-57.66,27.28-91.16l37,33.12C791.51,69.4,782.65,52.15,736.72,15.11Zm-627.9,172c36.88-22.68,73.12-45.2,109.6-67.31,24-14.55,47.61-16.64,74.63-4,34.68,16.22,70.81,22.5,104.16-6.6,4.35-3.8,14.65-4.8,20.3-2.49,73.95,30.38,147.28,17,220.72-1.63,3.88-1,8.23-.12,16.73-.12-44.46,46.55-98.77,62.34-155.59,76.37-77.95,19.24-155.86,1.07-233.54,6-26.54,1.7-52.8,7.74-80,11.92,7,19.9,11.68,33.28,18.79,53.54ZM249,252.66c-14.26-4.66-25-20.21-37.26-30.85L218,208.38c128.57-12.58,262.75,32.15,386.73-35-11.88,34.86-28.7,63.8-65.83,69.5-67.71,10.4-135.61,20.87-203.83,25.92C306.81,270.93,276.68,261.71,249,252.66Zm279.26,142.9c-48,49.56-182.54,70-243.43,29l240.76-40.94Zm60.33,47c-31.89,42.87-73.85,78.91-125.08,96.08-31.14,10.44-65.27,14.33-98,14.32-16.5,0-37.88,1.43-52.73-6.42-26.6-14.06-56.55-24.89-72.74-52.61a62.43,62.43,0,0,1-7.33-42A56.49,56.49,0,0,1,240.42,432c1.75-2.81,11.32-12.21,10.88-14.85,1.48,8.46,8.68,15.69,13.19,22.23,5.46,7.9,12.36,12.5,21.43,17a105.14,105.14,0,0,0,54.32,10.61c45-3.11,90.71-5.7,134.3-16.09C557.93,431.08,588.17,358.5,620,290.31c19.62-42,34.9-86.1,52.48-129.1a94,94,0,0,1,17.92-28.71C665.24,239,657,350.54,588.61,442.52Z" transform="translate(-60.56 -15.09)"/><path class="cls-3" d="M538.92,242.92c37.13-5.7,54-34.64,65.83-69.5-124,67.11-258.16,22.38-386.73,35l-6.26,13.43c12.3,10.64,23,26.19,37.26,30.85,27.66,9,57.79,18.27,86.07,16.18C403.31,263.79,471.21,253.32,538.92,242.92Z" transform="translate(-60.56 -15.09)"/><path class="cls-3" d="M528.28,395.56l-2.67-12L284.85,424.52C345.74,465.52,480.29,445.12,528.28,395.56Z" transform="translate(-60.56 -15.09)"/></g></svg>