<svg id="Camada_1" data-name="Camada 1" xmlns="http://www.w3.org/2000/svg" viewBox="0 0 1782.56 916.34"><defs><style>.cls-1{fill:#333;}</style></defs><path class="cls-1" d="M6.82,964.16c5.15-4.9,10.77,10.79,15.65-2.52,4.86,1.52,8-6.37,12.64-7.74,3.62,12.25,6.72-4.42,10.57-2.19,6.47-5.22,8.19.88,13-7.51,4.53-9.39,11-8,15.45-7.19,3-10,3.44-13.53,3.47-14.52a1,1,0,0,0,.34.54c3.17-18.95,14.17-10.53,27.42-11,10.14,8.59,19.83,1.8,29.86-4.28,7.94-1.63,16.67.26,24.69-.24,4.91,9.76,8.34-18.29,12.83,2.15,6.88-9.52,7.77,16.59,15.21,4.46,4.56-1.75,8.51,12,12.94,2.4,4.76.26,10.11-2,14.9-.12,7.86,9.19,15.74-.24,23.6,0,10.5,4,20.55-13,31,2.2,7.08,1.19,14.53,11,20.15,5.87,4.74,11,6.38,7.4,12.29,9.72,5.45,8.61,12.36,3.61,18.48,6.45,6.26,1.13,15.47,4.93,21.3-.91,6,4,7.17-10.27,14.07-3.48,12-4.27,21.79,15.88,29.35-6,1.4,1.3,3.15,7,5.32-6.86,4.13,6.46,11.68-12.23,16.25-.25,10.52-2,18.9-9.73,29.06-6.83,10.41.79,20.06-1.38,30.57-2.1,10.53,13.43,21.35,4.18,31.6,0,8.93,5.11,15.28,2.29,19.4-1.28-1.94-5.95,6.42-2.4,9.51-3.17,5.94.1,19.64-3.59,33.47-1.33,16.41-14.24,20-9.5,33.54-.76,1.77-.15,3.44-.27,5.08-.4V155.14c-2.37,8.73-11.06,18.22-21.07,8.36-20.46-.06-24.12-7.47-30.44.1-6.37-10,.08-2.92-7.84-4-1.64-5.58-15.65-10.63-20.07-2.95-4.93-16.24-1.84-6.17-8.67-6.43-3.79-.05-4.56,9.39-11.22-3.33-5.41.69-11.05-2.41-14.32-4.23.51-.08.27,2-.4-12-5.67.55-13.76-17.17-17.16-19.55.79,12.15-5.72-6.24-7.19-7.43-2.81-11.45-4.19,6-7,2.47-12.82,7.61-13.57-9.49-21.63-20-3.05,5.94-10.42-2.11-13.41,2.62-5.43,8.35-8.68,8.23-15.55,6.31-6.59,8.56-13.61-6.76-20.09.33-3.9-2-7.74,10.3-12,4.17-3.07-8.61-2.05-10.16-4.22-2.4-4.42-13.7-5.47-2.39-11.83-2.25-4.44,7.66-11.72-4.51-16-.12-3.46-3.72-6.35-8.42-8.81,5.82-4.37-1.69-7.77,2.72-14.33,9.42-5.73,1.13-12.53-6.42-18.47.41-6-7-6.5,8-11.22,2.2-3.78-6.71-8.07,6.83-11.36,4.19-3.75-8.71-3.25,10.55-8.15,7.14-1.51-8.72-7.57,3-8.48-.29-3.9,3.72-7.92,8.59-11.82.12-5.48,7.21-5.43-1.45-9.7-4.36-7.84-3.94-21.09,7.44-28.8,9.78-6.8,4.1-13.74,8.43-20.29,2.83-8.52,5.29-17.61.2-26-1.23-8-1.07-17-12.79-25-.48-8.58,5.39-15-6-21.45-6.77-6.42-2.38-12.8-9.09-21.22-6.67-8.17,4.62-15.55-1.23-23.74,2.36-10.28,9-20.57,10.91-30.85,0-7.92,7.12-15.95-2.2-23.66,0-4.12,8.52-8.15,10-12,9.42V963.38A9.13,9.13,0,0,1,6.82,964.16Z" transform="translate(-4.22 -60.82)"/><path class="cls-1" d="M1193.78,938.84c5.16-4.9,10.77,10.8,15.65-2.52,4.86,1.52,8-6.37,12.65-7.74,3.61,12.25,6.72-4.42,10.56-2.19,6.48-5.22,8.2.88,13-7.51,4.52-9.39,11-8,15.44-7.19,3-10,3.45-13.53,3.48-14.52a.93.93,0,0,0,.33.54c3.17-19,14.18-10.53,27.43-11,10.13,8.59,19.83,1.8,29.85-4.28,7.94-1.63,16.68.27,24.7-.23,4.91,9.75,8.33-18.3,12.82,2.14,6.89-9.52,7.77,16.59,15.22,4.46,4.55-1.74,8.5,12,12.93,2.4,4.76.26,10.11-2,14.91-.12,7.86,9.19,15.73-.24,23.59,0,10.5,4,20.55-13,31,2.21,7.07,1.18,14.53,10.94,20.14,5.86,4.74,11,6.39,7.41,12.3,9.72,5.45,8.61,12.35,3.61,18.48,6.45,6.26,1.14,15.46,4.93,21.29-.91,6,4,7.17-10.27,14.08-3.48,12-4.27,21.79,15.88,29.34-6,1.4,1.3,3.15,7.05,5.33-6.85,4.13,6.45,11.67-12.24,16.24-.26,10.53-2,18.91-9.73,29.06-6.83,10.41.79,20.07-1.38,30.57-2.1,10.54,13.43,21.36,4.18,31.61,0,8.93,5.11,15.27,2.29,19.39-1.28-1.93-6,6.43-2.4,9.52-3.17,5.93.1,19.63-3.59,33.46-1.33,16.42-14.24,20-9.5,33.54-.76l5.09-.4V129.82c-2.37,8.73-11.06,18.22-21.08,8.36-20.45-.06-24.11-7.47-30.43.1-6.38-10.05.07-2.92-7.85-4-1.64-5.59-15.64-10.64-20.06-3-4.94-16.24-1.84-6.16-8.67-6.42-3.8-.06-4.57,9.38-11.23-3.34-5.41.69-11-2.41-14.31-4.23.51-.08.26,2-.41-12-5.67.55-13.76-17.17-17.16-19.55.79,12.15-5.72-6.24-7.18-7.43-2.81-11.45-4.19,6-7,2.47-12.81,7.62-13.57-9.49-21.62-20-3,5.94-10.43-2.1-13.41,2.63-5.44,8.35-8.68,8.22-15.55,6.3-6.6,8.56-13.61-6.75-20.1.33-3.9-2-7.73,10.3-12,4.17-3.07-8.61-2-10.15-4.22-2.4-4.42-13.7-5.47-2.39-11.82-2.25-4.44,7.66-11.73-4.51-16-.12-3.47-3.72-6.35-8.42-8.82,5.82-4.37-1.68-7.76,2.72-14.33,9.42-5.72,1.13-12.53-6.42-18.46.41-6-7-6.51,8-11.23,2.2-3.78-6.71-8.06,6.83-11.36,4.19-3.74-8.71-3.24,10.55-8.15,7.14-1.5-8.72-7.56,3-8.47-.29-3.91,3.72-7.93,8.59-11.82.12-5.48,7.21-5.44-1.45-9.71-4.36-7.83-3.94-21.08,7.44-28.8,9.79-6.8,4.09-13.74,8.42-20.29,2.82-8.52,5.29-17.61.2-26-1.23-8-1.07-17-12.79-25-.48-8.59,5.39-15-6-21.46-6.77-6.41-2.38-12.79-9.09-21.22-6.66-8.17,4.61-15.54-1.24-23.73,2.36-10.28,9-20.57,10.91-30.86,0-7.92,7.12-15.94-2.2-23.66,0-4.12,8.52-8.15,10-12,9.42V938.06A9.13,9.13,0,0,1,1193.78,938.84Z" transform="translate(-4.22 -60.82)"/><path class="cls-1" d="M1195.91,99.13c-5.22,4.9-10.9-10.79-15.85,2.52-4.91-1.52-8.12,6.37-12.8,7.75-3.66-12.26-6.8,4.42-10.69,2.19-6.56,5.21-8.3-.89-13.15,7.51-4.58,9.38-11.17,8-15.63,7.18-3,10-3.49,13.53-3.52,14.52a1,1,0,0,0-.34-.54c-3.21,19-14.35,10.53-27.76,11-10.26-8.59-20.08-1.8-30.23,4.28-8,1.63-16.88-.26-25,.24-5-9.75-8.43,18.3-13-2.14-7,9.51-7.86-16.6-15.4-4.47-4.61,1.75-8.61-12-13.1-2.39-4.81-.27-10.23,2-15.09.11-8-9.19-15.93.24-23.89,0-10.62-4-20.8,13-31.38-2.2-7.17-1.19-14.71-10.95-20.39-5.86-4.8-11-6.47-7.41-12.45-9.72-5.52-8.62-12.51-3.62-18.71-6.46-6.34-1.13-15.65-4.93-21.56.91-6.1-4-7.26,10.27-14.25,3.48-12.18,4.28-22.06-15.87-29.7,6-1.42-1.29-3.19-7.05-5.39,6.86-4.19-6.46-11.83,12.23-16.45.25-10.66,2-19.14,9.73-29.42,6.83-10.54-.79-20.31,1.39-30.95,2.1-10.66-13.43-21.61-4.18-32,0-9-5.11-15.46-2.29-19.64,1.28,2,6-6.5,2.4-9.63,3.18-6-.11-19.88,3.59-33.88,1.32-16.62,14.24-20.23,9.5-34,.77l-5.15.39V908.15c2.4-8.73,11.2-18.22,21.34-8.35,20.7.05,24.41,7.46,30.81-.11,6.45,10-.08,2.93,7.94,4,1.66,5.58,15.84,10.63,20.31,3,5,16.23,1.86,6.16,8.78,6.42,3.84,0,4.62-9.38,11.36,3.34,5.48-.7,11.19,2.4,14.5,4.23-.52.07-.28-2,.4,12,5.75-.55,13.93,17.18,17.38,19.55-.8-12.14,5.79,6.24,7.27,7.44,2.85,11.44,4.24-6,7.08-2.47,13-7.62,13.74,9.48,21.89,20,3.09-5.94,10.56,2.11,13.58-2.62,5.5-8.35,8.78-8.23,15.74-6.31,6.68-8.56,13.78,6.76,20.35-.33,3.94,2,7.82-10.3,12.18-4.16,3.11,8.6,2.08,10.15,4.28,2.39,4.47,13.7,5.53,2.39,12,2.26,4.49-7.67,11.87,4.5,16.24.12,3.5,3.71,6.42,8.42,8.92-5.83,4.42,1.69,7.86-2.72,14.5-9.42,5.8-1.13,12.69,6.42,18.7-.4,6,7,6.58-8,11.36-2.21,3.83,6.71,8.17-6.83,11.5-4.18,3.79,8.7,3.29-10.56,8.25-7.15,1.52,8.72,7.66-2.95,8.58.29,4-3.71,8-8.59,12-.12,5.54-7.21,5.5,1.45,9.82,4.36,7.93,3.94,21.35-7.44,29.16-9.78,6.88-4.1,13.91-8.43,20.54-2.83,8.62-5.28,17.83-.19,26.32,1.23,8.09,1.08,17.18,12.79,25.34.48,8.69-5.38,15.22,6,21.71,6.77,6.5,2.38,12.95,9.09,21.49,6.67,8.27-4.62,15.73,1.23,24-2.36,10.41-9,20.83-10.91,31.24,0,8-7.12,16.14,2.21,23.95,0,4.17-8.52,8.25-10,12.18-9.42V99.91A9.31,9.31,0,0,1,1195.91,99.13Z" transform="translate(-4.22 -60.82)"/></svg>